# xmcd
#
# Track frame offsets:
#	150
#	16287
#	32455
#	43881
#	57413
#	74088
#	90177
#	105097
#	125354
#	143631
#	167801
#	183524
#	200022
#	220186
#
# Disc length: 3248 seconds
#
# Revision: 0
# Processed by: cddbd v1.4PL0 Copyright (c) Steve Scherf et al.
# Submitted via: audiograbber 1.81.02
#
DISCID=c00cae0e
DTITLE=Harry Welling - HARRY WELLING live
DYEAR=2001
DGENRE=
TTITLE0=Cross Country Waltz
TTITLE1=Bright Blue Rose
TTITLE2=Chardasch
TTITLE3=This Old Guitar
TTITLE4=Das kleine Mädchen
TTITLE5=Roses Of Red
TTITLE6=Kinder
TTITLE7=Ride On
TTITLE8=Blues For The River
TTITLE9=Piano Man
TTITLE10=Carrickfergus
TTITLE11=Look What They've Done
TTITLE12=Stay Young
TTITLE13=Drunken Sailor
EXTD=
EXTT0=
EXTT1=
EXTT2=
EXTT3=
EXTT4=
EXTT5=
EXTT6=
EXTT7=
EXTT8=
EXTT9=
EXTT10=
EXTT11=
EXTT12=
EXTT13=
PLAYORDER=
